<svg xmlns="http://www.w3.org/2000/svg" xmlns:xlink="http://www.w3.org/1999/xlink" width="134pt" height="118pt" viewBox="0.00 0.00 134.00 118.00">
<g id="graph0" class="graph" transform="scale(1 1) rotate(0) translate(4 114)">
<title>BTree</title>
<polygon fill="white" stroke="none" points="-4,4 -4,-114 130,-114 130,4 -4,4"/>
<!-- node0 -->
<g id="node1" class="node">
<title>node0</title>
<polygon fill="none" stroke="black" points="36,-73.5 36,-109.5 90,-109.5 90,-73.5 36,-73.5"/>
<text xml:space="preserve" text-anchor="middle" x="63" y="-87.3" font-family="Times,serif" font-size="14.00">5</text>
</g>
<!-- node1 -->
<g id="node2" class="node">
<title>node1</title>
<polygon fill="none" stroke="black" points="0,-0.5 0,-36.5 54,-36.5 54,-0.5 0,-0.5"/>
<text xml:space="preserve" text-anchor="middle" x="27" y="-14.3" font-family="Times,serif" font-size="14.00">1</text>
</g>
<!-- node0&#45;&gt;node1 -->
<g id="edge1" class="edge">
<title>node0-&gt;node1</title>
<path fill="none" stroke="black" d="M54.29,-73.31C50.22,-65.29 45.28,-55.55 40.73,-46.57"/>
<polygon fill="black" stroke="black" points="43.96,-45.21 36.32,-37.88 37.72,-48.38 43.96,-45.21"/>
</g>
<!-- node2 -->
<g id="node3" class="node">
<title>node2</title>
<polygon fill="none" stroke="black" points="72,-0.5 72,-36.5 126,-36.5 126,-0.5 72,-0.5"/>
<text xml:space="preserve" text-anchor="middle" x="83.5" y="-14.3" font-family="Times,serif" font-size="14.00">9</text>
<polyline fill="none" stroke="black" points="95,-0.5 95,-36.5"/>
<text xml:space="preserve" text-anchor="middle" x="110.5" y="-14.3" font-family="Times,serif" font-size="14.00">10</text>
</g>
<!-- node0&#45;&gt;node2 -->
<g id="edge2" class="edge">
<title>node0-&gt;node2</title>
<path fill="none" stroke="black" d="M71.71,-73.31C75.78,-65.29 80.72,-55.55 85.27,-46.57"/>
<polygon fill="black" stroke="black" points="88.28,-48.38 89.68,-37.88 82.04,-45.21 88.28,-48.38"/>
</g>
</g>
</svg>