<svg xmlns="http://www.w3.org/2000/svg" xmlns:xlink="http://www.w3.org/1999/xlink" width="2188pt" height="264pt" viewBox="0.00 0.00 2188.00 264.00">
<g id="graph0" class="graph" transform="scale(1 1) rotate(0) translate(4 260)">
<title>BTree</title>
<polygon fill="white" stroke="none" points="-4,4 -4,-260 2183.5,-260 2183.5,4 -4,4"/>
<!-- node0 -->
<g id="node1" class="node">
<title>node0</title>
<polygon fill="none" stroke="black" points="979,-219.5 979,-255.5 1069,-255.5 1069,-219.5 979,-219.5"/>
<text xml:space="preserve" text-anchor="middle" x="994" y="-233.3" font-family="Times,serif" font-size="14.00">21</text>
<polyline fill="none" stroke="black" points="1009,-219.5 1009,-255.5"/>
<text xml:space="preserve" text-anchor="middle" x="1024" y="-233.3" font-family="Times,serif" font-size="14.00">46</text>
<polyline fill="none" stroke="black" points="1039,-219.5 1039,-255.5"/>
<text xml:space="preserve" text-anchor="middle" x="1054" y="-233.3" font-family="Times,serif" font-size="14.00">67</text>
</g>
<!-- node1 -->
<g id="node2" class="node">
<title>node1</title>
<polygon fill="none" stroke="black" points="336,-146.5 336,-182.5 390,-182.5 390,-146.5 336,-146.5"/>
<text xml:space="preserve" text-anchor="middle" x="363" y="-160.3" font-family="Times,serif" font-size="14.00">15</text>
</g>
<!-- node0&#45;&gt;node1 -->
<g id="edge9" class="edge">
<title>node0-&gt;node1</title>
<path fill="none" stroke="black" d="M978.57,-231.62C855.32,-218.38 516.24,-181.96 401.52,-169.64"/>
<polygon fill="black" stroke="black" points="402.02,-166.17 391.71,-168.58 401.27,-173.13 402.02,-166.17"/>
</g>
<!-- node10 -->
<g id="node11" class="node">
<title>node10</title>
<polygon fill="none" stroke="black" points="810,-146.5 810,-182.5 870,-182.5 870,-146.5 810,-146.5"/>
<text xml:space="preserve" text-anchor="middle" x="825" y="-160.3" font-family="Times,serif" font-size="14.00">29</text>
<polyline fill="none" stroke="black" points="840,-146.5 840,-182.5"/>
<text xml:space="preserve" text-anchor="middle" x="855" y="-160.3" font-family="Times,serif" font-size="14.00">39</text>
</g>
<!-- node0&#45;&gt;node10 -->
<g id="edge21" class="edge">
<title>node0-&gt;node10</title>
<path fill="none" stroke="black" d="M978.99,-219.13C949.08,-207.59 910.12,-192.56 881.06,-181.34"/>
<polygon fill="black" stroke="black" points="882.45,-178.13 871.86,-177.79 879.93,-184.66 882.45,-178.13"/>
</g>
<!-- node22 -->
<g id="node23" class="node">
<title>node22</title>
<polygon fill="none" stroke="black" points="1110,-146.5 1110,-182.5 1164,-182.5 1164,-146.5 1110,-146.5"/>
<text xml:space="preserve" text-anchor="middle" x="1137" y="-160.3" font-family="Times,serif" font-size="14.00">53</text>
</g>
<!-- node0&#45;&gt;node22 -->
<g id="edge30" class="edge">
<title>node0-&gt;node22</title>
<path fill="none" stroke="black" d="M1051.64,-219.13C1066.25,-209.95 1084.38,-198.56 1100.17,-188.64"/>
<polygon fill="black" stroke="black" points="1101.76,-191.78 1108.36,-183.49 1098.03,-185.85 1101.76,-191.78"/>
</g>
<!-- node31 -->
<g id="node32" class="node">
<title>node31</title>
<polygon fill="none" stroke="black" points="1675,-146.5 1675,-182.5 1735,-182.5 1735,-146.5 1675,-146.5"/>
<text xml:space="preserve" text-anchor="middle" x="1690" y="-160.3" font-family="Times,serif" font-size="14.00">76</text>
<polyline fill="none" stroke="black" points="1705,-146.5 1705,-182.5"/>
<text xml:space="preserve" text-anchor="middle" x="1720" y="-160.3" font-family="Times,serif" font-size="14.00">88</text>
</g>
<!-- node0&#45;&gt;node31 -->
<g id="edge43" class="edge">
<title>node0-&gt;node31</title>
<path fill="none" stroke="black" d="M1069.47,-231.76C1194.63,-218.71 1542.88,-182.4 1663.35,-169.84"/>
<polygon fill="black" stroke="black" points="1663.53,-173.34 1673.11,-168.82 1662.8,-166.38 1663.53,-173.34"/>
</g>
<!-- node2 -->
<g id="node3" class="node">
<title>node2</title>
<polygon fill="none" stroke="black" points="133,-73.5 133,-109.5 209,-109.5 209,-73.5 133,-73.5"/>
<text xml:space="preserve" text-anchor="middle" x="144.5" y="-87.3" font-family="Times,serif" font-size="14.00">3</text>
<polyline fill="none" stroke="black" points="156,-73.5 156,-109.5"/>
<text xml:space="preserve" text-anchor="middle" x="167.5" y="-87.3" font-family="Times,serif" font-size="14.00">8</text>
<polyline fill="none" stroke="black" points="179,-73.5 179,-109.5"/>
<text xml:space="preserve" text-anchor="middle" x="194" y="-87.3" font-family="Times,serif" font-size="14.00">11</text>
</g>
<!-- node1&#45;&gt;node2 -->
<g id="edge5" class="edge">
<title>node1-&gt;node2</title>
<path fill="none" stroke="black" d="M335.9,-153.48C305.79,-142.34 256.58,-124.15 219.74,-110.52"/>
<polygon fill="black" stroke="black" points="221.23,-107.34 210.64,-107.16 218.8,-113.91 221.23,-107.34"/>
</g>
<!-- node7 -->
<g id="node8" class="node">
<title>node7</title>
<polygon fill="none" stroke="black" points="336,-73.5 336,-109.5 390,-109.5 390,-73.5 336,-73.5"/>
<text xml:space="preserve" text-anchor="middle" x="363" y="-87.3" font-family="Times,serif" font-size="14.00">18</text>
</g>
<!-- node1&#45;&gt;node7 -->
<g id="edge8" class="edge">
<title>node1-&gt;node7</title>
<path fill="none" stroke="black" d="M363,-146.31C363,-138.73 363,-129.6 363,-121.04"/>
<polygon fill="black" stroke="black" points="366.5,-121.04 363,-111.04 359.5,-121.04 366.5,-121.04"/>
</g>
<!-- node3 -->
<g id="node4" class="node">
<title>node3</title>
<polygon fill="none" stroke="black" points="0,-0.5 0,-36.5 54,-36.5 54,-0.5 0,-0.5"/>
<text xml:space="preserve" text-anchor="middle" x="27" y="-14.3" font-family="Times,serif" font-size="14.00">1</text>
</g>
<!-- node2&#45;&gt;node3 -->
<g id="edge1" class="edge">
<title>node2-&gt;node3</title>
<path fill="none" stroke="black" d="M135.77,-73.13C114.16,-62.48 86.51,-48.84 64.5,-37.99"/>
<polygon fill="black" stroke="black" points="66.07,-34.86 55.55,-33.58 62.97,-41.14 66.07,-34.86"/>
</g>
<!-- node4 -->
<g id="node5" class="node">
<title>node4</title>
<polygon fill="none" stroke="black" points="72,-0.5 72,-36.5 126,-36.5 126,-0.5 72,-0.5"/>
<text xml:space="preserve" text-anchor="middle" x="99" y="-14.3" font-family="Times,serif" font-size="14.00">4</text>
</g>
<!-- node2&#45;&gt;node4 -->
<g id="edge2" class="edge">
<title>node2-&gt;node4</title>
<path fill="none" stroke="black" d="M153.57,-73.31C144.88,-64.74 134.2,-54.21 124.6,-44.74"/>
<polygon fill="black" stroke="black" points="127.17,-42.37 117.6,-37.84 122.26,-47.35 127.17,-42.37"/>
</g>
<!-- node5 -->
<g id="node6" class="node">
<title>node5</title>
<polygon fill="none" stroke="black" points="144,-0.5 144,-36.5 198,-36.5 198,-0.5 144,-0.5"/>
<text xml:space="preserve" text-anchor="middle" x="171" y="-14.3" font-family="Times,serif" font-size="14.00">10</text>
</g>
<!-- node2&#45;&gt;node5 -->
<g id="edge3" class="edge">
<title>node2-&gt;node5</title>
<path fill="none" stroke="black" d="M171,-73.31C171,-65.73 171,-56.6 171,-48.04"/>
<polygon fill="black" stroke="black" points="174.5,-48.04 171,-38.04 167.5,-48.04 174.5,-48.04"/>
</g>
<!-- node6 -->
<g id="node7" class="node">
<title>node6</title>
<polygon fill="none" stroke="black" points="216,-0.5 216,-36.5 276,-36.5 276,-0.5 216,-0.5"/>
<text xml:space="preserve" text-anchor="middle" x="231" y="-14.3" font-family="Times,serif" font-size="14.00">13</text>
<polyline fill="none" stroke="black" points="246,-0.5 246,-36.5"/>
<text xml:space="preserve" text-anchor="middle" x="261" y="-14.3" font-family="Times,serif" font-size="14.00">14</text>
</g>
<!-- node2&#45;&gt;node6 -->
<g id="edge4" class="edge">
<title>node2-&gt;node6</title>
<path fill="none" stroke="black" d="M189.16,-73.31C198.3,-64.66 209.56,-54 219.64,-44.46"/>
<polygon fill="black" stroke="black" points="221.8,-47.23 226.65,-37.82 216.98,-42.15 221.8,-47.23"/>
</g>
<!-- node8 -->
<g id="node9" class="node">
<title>node8</title>
<polygon fill="none" stroke="black" points="294,-0.5 294,-36.5 354,-36.5 354,-0.5 294,-0.5"/>
<text xml:space="preserve" text-anchor="middle" x="309" y="-14.3" font-family="Times,serif" font-size="14.00">16</text>
<polyline fill="none" stroke="black" points="324,-0.5 324,-36.5"/>
<text xml:space="preserve" text-anchor="middle" x="339" y="-14.3" font-family="Times,serif" font-size="14.00">17</text>
</g>
<!-- node7&#45;&gt;node8 -->
<g id="edge6" class="edge">
<title>node7-&gt;node8</title>
<path fill="none" stroke="black" d="M353.56,-73.31C349.15,-65.29 343.8,-55.55 338.87,-46.57"/>
<polygon fill="black" stroke="black" points="341.96,-44.94 334.08,-37.86 335.83,-48.31 341.96,-44.94"/>
</g>
<!-- node9 -->
<g id="node10" class="node">
<title>node9</title>
<polygon fill="none" stroke="black" points="372,-0.5 372,-36.5 432,-36.5 432,-0.5 372,-0.5"/>
<text xml:space="preserve" text-anchor="middle" x="387" y="-14.3" font-family="Times,serif" font-size="14.00">19</text>
<polyline fill="none" stroke="black" points="402,-0.5 402,-36.5"/>
<text xml:space="preserve" text-anchor="middle" x="417" y="-14.3" font-family="Times,serif" font-size="14.00">20</text>
</g>
<!-- node7&#45;&gt;node9 -->
<g id="edge7" class="edge">
<title>node7-&gt;node9</title>
<path fill="none" stroke="black" d="M372.44,-73.31C376.85,-65.29 382.2,-55.55 387.13,-46.57"/>
<polygon fill="black" stroke="black" points="390.17,-48.31 391.92,-37.86 384.04,-44.94 390.17,-48.31"/>
</g>
<!-- node11 -->
<g id="node12" class="node">
<title>node11</title>
<polygon fill="none" stroke="black" points="522,-73.5 522,-109.5 576,-109.5 576,-73.5 522,-73.5"/>
<text xml:space="preserve" text-anchor="middle" x="549" y="-87.3" font-family="Times,serif" font-size="14.00">25</text>
</g>
<!-- node10&#45;&gt;node11 -->
<g id="edge12" class="edge">
<title>node10-&gt;node11</title>
<path fill="none" stroke="black" d="M809.68,-156.1C756.32,-143.08 645.75,-116.11 587.24,-101.83"/>
<polygon fill="black" stroke="black" points="588.27,-98.48 577.73,-99.51 586.62,-105.28 588.27,-98.48"/>
</g>
<!-- node14 -->
<g id="node15" class="node">
<title>node14</title>
<polygon fill="none" stroke="black" points="735,-73.5 735,-109.5 795,-109.5 795,-73.5 735,-73.5"/>
<text xml:space="preserve" text-anchor="middle" x="750" y="-87.3" font-family="Times,serif" font-size="14.00">33</text>
<polyline fill="none" stroke="black" points="765,-73.5 765,-109.5"/>
<text xml:space="preserve" text-anchor="middle" x="780" y="-87.3" font-family="Times,serif" font-size="14.00">36</text>
</g>
<!-- node10&#45;&gt;node14 -->
<g id="edge16" class="edge">
<title>node10-&gt;node14</title>
<path fill="none" stroke="black" d="M821.84,-146.31C812.7,-137.66 801.44,-127 791.36,-117.46"/>
<polygon fill="black" stroke="black" points="794.02,-115.15 784.35,-110.82 789.2,-120.23 794.02,-115.15"/>
</g>
<!-- node18 -->
<g id="node19" class="node">
<title>node18</title>
<polygon fill="none" stroke="black" points="885,-73.5 885,-109.5 945,-109.5 945,-73.5 885,-73.5"/>
<text xml:space="preserve" text-anchor="middle" x="900" y="-87.3" font-family="Times,serif" font-size="14.00">41</text>
<polyline fill="none" stroke="black" points="915,-73.5 915,-109.5"/>
<text xml:space="preserve" text-anchor="middle" x="930" y="-87.3" font-family="Times,serif" font-size="14.00">44</text>
</g>
<!-- node10&#45;&gt;node18 -->
<g id="edge20" class="edge">
<title>node10-&gt;node18</title>
<path fill="none" stroke="black" d="M858.16,-146.31C867.3,-137.66 878.56,-127 888.64,-117.46"/>
<polygon fill="black" stroke="black" points="890.8,-120.23 895.65,-110.82 885.98,-115.15 890.8,-120.23"/>
</g>
<!-- node12 -->
<g id="node13" class="node">
<title>node12</title>
<polygon fill="none" stroke="black" points="450,-0.5 450,-36.5 504,-36.5 504,-0.5 450,-0.5"/>
<text xml:space="preserve" text-anchor="middle" x="477" y="-14.3" font-family="Times,serif" font-size="14.00">24</text>
</g>
<!-- node11&#45;&gt;node12 -->
<g id="edge10" class="edge">
<title>node11-&gt;node12</title>
<path fill="none" stroke="black" d="M531.57,-73.31C522.88,-64.74 512.2,-54.21 502.6,-44.74"/>
<polygon fill="black" stroke="black" points="505.17,-42.37 495.6,-37.84 500.26,-47.35 505.17,-42.37"/>
</g>
<!-- node13 -->
<g id="node14" class="node">
<title>node13</title>
<polygon fill="none" stroke="black" points="522,-0.5 522,-36.5 576,-36.5 576,-0.5 522,-0.5"/>
<text xml:space="preserve" text-anchor="middle" x="549" y="-14.3" font-family="Times,serif" font-size="14.00">27</text>
</g>
<!-- node11&#45;&gt;node13 -->
<g id="edge11" class="edge">
<title>node11-&gt;node13</title>
<path fill="none" stroke="black" d="M549,-73.31C549,-65.73 549,-56.6 549,-48.04"/>
<polygon fill="black" stroke="black" points="552.5,-48.04 549,-38.04 545.5,-48.04 552.5,-48.04"/>
</g>
<!-- node15 -->
<g id="node16" class="node">
<title>node15</title>
<polygon fill="none" stroke="black" points="594,-0.5 594,-36.5 684,-36.5 684,-0.5 594,-0.5"/>
<text xml:space="preserve" text-anchor="middle" x="609" y="-14.3" font-family="Times,serif" font-size="14.00">30</text>
<polyline fill="none" stroke="black" points="624,-0.5 624,-36.5"/>
<text xml:space="preserve" text-anchor="middle" x="639" y="-14.3" font-family="Times,serif" font-size="14.00">31</text>
<polyline fill="none" stroke="black" points="654,-0.5 654,-36.5"/>
<text xml:space="preserve" text-anchor="middle" x="669" y="-14.3" font-family="Times,serif" font-size="14.00">32</text>
</g>
<!-- node14&#45;&gt;node15 -->
<g id="edge13" class="edge">
<title>node14-&gt;node15</title>
<path fill="none" stroke="black" d="M734.82,-73.49C718.31,-64.19 697.63,-52.54 679.71,-42.44"/>
<polygon fill="black" stroke="black" points="681.56,-39.46 671.13,-37.6 678.12,-45.56 681.56,-39.46"/>
</g>
<!-- node16 -->
<g id="node17" class="node">
<title>node16</title>
<polygon fill="none" stroke="black" points="702,-0.5 702,-36.5 756,-36.5 756,-0.5 702,-0.5"/>
<text xml:space="preserve" text-anchor="middle" x="729" y="-14.3" font-family="Times,serif" font-size="14.00">35</text>
</g>
<!-- node14&#45;&gt;node16 -->
<g id="edge14" class="edge">
<title>node14-&gt;node16</title>
<path fill="none" stroke="black" d="M756.29,-73.31C752.22,-65.29 747.28,-55.55 742.73,-46.57"/>
<polygon fill="black" stroke="black" points="745.96,-45.21 738.32,-37.88 739.72,-48.38 745.96,-45.21"/>
</g>
<!-- node17 -->
<g id="node18" class="node">
<title>node17</title>
<polygon fill="none" stroke="black" points="774,-0.5 774,-36.5 834,-36.5 834,-0.5 774,-0.5"/>
<text xml:space="preserve" text-anchor="middle" x="789" y="-14.3" font-family="Times,serif" font-size="14.00">37</text>
<polyline fill="none" stroke="black" points="804,-0.5 804,-36.5"/>
<text xml:space="preserve" text-anchor="middle" x="819" y="-14.3" font-family="Times,serif" font-size="14.00">38</text>
</g>
<!-- node14&#45;&gt;node17 -->
<g id="edge15" class="edge">
<title>node14-&gt;node17</title>
<path fill="none" stroke="black" d="M774.44,-73.31C778.85,-65.29 784.2,-55.55 789.13,-46.57"/>
<polygon fill="black" stroke="black" points="792.17,-48.31 793.92,-37.86 786.04,-44.94 792.17,-48.31"/>
</g>
<!-- node19 -->
<g id="node20" class="node">
<title>node19</title>
<polygon fill="none" stroke="black" points="852,-0.5 852,-36.5 906,-36.5 906,-0.5 852,-0.5"/>
<text xml:space="preserve" text-anchor="middle" x="879" y="-14.3" font-family="Times,serif" font-size="14.00">40</text>
</g>
<!-- node18&#45;&gt;node19 -->
<g id="edge17" class="edge">
<title>node18-&gt;node19</title>
<path fill="none" stroke="black" d="M906.29,-73.31C902.22,-65.29 897.28,-55.55 892.73,-46.57"/>
<polygon fill="black" stroke="black" points="895.96,-45.21 888.32,-37.88 889.72,-48.38 895.96,-45.21"/>
</g>
<!-- node20 -->
<g id="node21" class="node">
<title>node20</title>
<polygon fill="none" stroke="black" points="924,-0.5 924,-36.5 978,-36.5 978,-0.5 924,-0.5"/>
<text xml:space="preserve" text-anchor="middle" x="951" y="-14.3" font-family="Times,serif" font-size="14.00">43</text>
</g>
<!-- node18&#45;&gt;node20 -->
<g id="edge18" class="edge">
<title>node18-&gt;node20</title>
<path fill="none" stroke="black" d="M923.71,-73.31C927.78,-65.29 932.72,-55.55 937.27,-46.57"/>
<polygon fill="black" stroke="black" points="940.28,-48.38 941.68,-37.88 934.04,-45.21 940.28,-48.38"/>
</g>
<!-- node21 -->
<g id="node22" class="node">
<title>node21</title>
<polygon fill="none" stroke="black" points="996,-0.5 996,-36.5 1050,-36.5 1050,-0.5 996,-0.5"/>
<text xml:space="preserve" text-anchor="middle" x="1023" y="-14.3" font-family="Times,serif" font-size="14.00">45</text>
</g>
<!-- node18&#45;&gt;node21 -->
<g id="edge19" class="edge">
<title>node18-&gt;node21</title>
<path fill="none" stroke="black" d="M941.42,-73.13C955.15,-64.11 972.13,-52.94 987.04,-43.14"/>
<polygon fill="black" stroke="black" points="988.78,-46.18 995.21,-37.77 984.94,-40.34 988.78,-46.18"/>
</g>
<!-- node23 -->
<g id="node24" class="node">
<title>node23</title>
<polygon fill="none" stroke="black" points="1110,-73.5 1110,-109.5 1164,-109.5 1164,-73.5 1110,-73.5"/>
<text xml:space="preserve" text-anchor="middle" x="1137" y="-87.3" font-family="Times,serif" font-size="14.00">50</text>
</g>
<!-- node22&#45;&gt;node23 -->
<g id="edge24" class="edge">
<title>node22-&gt;node23</title>
<path fill="none" stroke="black" d="M1137,-146.31C1137,-138.73 1137,-129.6 1137,-121.04"/>
<polygon fill="black" stroke="black" points="1140.5,-121.04 1137,-111.04 1133.5,-121.04 1140.5,-121.04"/>
</g>
<!-- node26 -->
<g id="node27" class="node">
<title>node26</title>
<polygon fill="none" stroke="black" points="1278,-73.5 1278,-109.5 1368,-109.5 1368,-73.5 1278,-73.5"/>
<text xml:space="preserve" text-anchor="middle" x="1293" y="-87.3" font-family="Times,serif" font-size="14.00">56</text>
<polyline fill="none" stroke="black" points="1308,-73.5 1308,-109.5"/>
<text xml:space="preserve" text-anchor="middle" x="1323" y="-87.3" font-family="Times,serif" font-size="14.00">58</text>
<polyline fill="none" stroke="black" points="1338,-73.5 1338,-109.5"/>
<text xml:space="preserve" text-anchor="middle" x="1353" y="-87.3" font-family="Times,serif" font-size="14.00">60</text>
</g>
<!-- node22&#45;&gt;node26 -->
<g id="edge29" class="edge">
<title>node22-&gt;node26</title>
<path fill="none" stroke="black" d="M1164.44,-153.02C1191.34,-142.76 1233.13,-126.8 1267.05,-113.86"/>
<polygon fill="black" stroke="black" points="1268.25,-117.14 1276.35,-110.31 1265.76,-110.6 1268.25,-117.14"/>
</g>
<!-- node24 -->
<g id="node25" class="node">
<title>node24</title>
<polygon fill="none" stroke="black" points="1068,-0.5 1068,-36.5 1128,-36.5 1128,-0.5 1068,-0.5"/>
<text xml:space="preserve" text-anchor="middle" x="1083" y="-14.3" font-family="Times,serif" font-size="14.00">48</text>
<polyline fill="none" stroke="black" points="1098,-0.5 1098,-36.5"/>
<text xml:space="preserve" text-anchor="middle" x="1113" y="-14.3" font-family="Times,serif" font-size="14.00">49</text>
</g>
<!-- node23&#45;&gt;node24 -->
<g id="edge22" class="edge">
<title>node23-&gt;node24</title>
<path fill="none" stroke="black" d="M1127.56,-73.31C1123.15,-65.29 1117.8,-55.55 1112.87,-46.57"/>
<polygon fill="black" stroke="black" points="1115.96,-44.94 1108.08,-37.86 1109.83,-48.31 1115.96,-44.94"/>
</g>
<!-- node25 -->
<g id="node26" class="node">
<title>node25</title>
<polygon fill="none" stroke="black" points="1146,-0.5 1146,-36.5 1206,-36.5 1206,-0.5 1146,-0.5"/>
<text xml:space="preserve" text-anchor="middle" x="1161" y="-14.3" font-family="Times,serif" font-size="14.00">51</text>
<polyline fill="none" stroke="black" points="1176,-0.5 1176,-36.5"/>
<text xml:space="preserve" text-anchor="middle" x="1191" y="-14.3" font-family="Times,serif" font-size="14.00">52</text>
</g>
<!-- node23&#45;&gt;node25 -->
<g id="edge23" class="edge">
<title>node23-&gt;node25</title>
<path fill="none" stroke="black" d="M1146.44,-73.31C1150.85,-65.29 1156.2,-55.55 1161.13,-46.57"/>
<polygon fill="black" stroke="black" points="1164.17,-48.31 1165.92,-37.86 1158.04,-44.94 1164.17,-48.31"/>
</g>
<!-- node27 -->
<g id="node28" class="node">
<title>node27</title>
<polygon fill="none" stroke="black" points="1224,-0.5 1224,-36.5 1278,-36.5 1278,-0.5 1224,-0.5"/>
<text xml:space="preserve" text-anchor="middle" x="1251" y="-14.3" font-family="Times,serif" font-size="14.00">55</text>
</g>
<!-- node26&#45;&gt;node27 -->
<g id="edge25" class="edge">
<title>node26-&gt;node27</title>
<path fill="none" stroke="black" d="M1305.57,-73.31C1296.88,-64.74 1286.2,-54.21 1276.6,-44.74"/>
<polygon fill="black" stroke="black" points="1279.17,-42.37 1269.6,-37.84 1274.26,-47.35 1279.17,-42.37"/>
</g>
<!-- node28 -->
<g id="node29" class="node">
<title>node28</title>
<polygon fill="none" stroke="black" points="1296,-0.5 1296,-36.5 1350,-36.5 1350,-0.5 1296,-0.5"/>
<text xml:space="preserve" text-anchor="middle" x="1323" y="-14.3" font-family="Times,serif" font-size="14.00">57</text>
</g>
<!-- node26&#45;&gt;node28 -->
<g id="edge26" class="edge">
<title>node26-&gt;node28</title>
<path fill="none" stroke="black" d="M1323,-73.31C1323,-65.73 1323,-56.6 1323,-48.04"/>
<polygon fill="black" stroke="black" points="1326.5,-48.04 1323,-38.04 1319.5,-48.04 1326.5,-48.04"/>
</g>
<!-- node29 -->
<g id="node30" class="node">
<title>node29</title>
<polygon fill="none" stroke="black" points="1368,-0.5 1368,-36.5 1422,-36.5 1422,-0.5 1368,-0.5"/>
<text xml:space="preserve" text-anchor="middle" x="1395" y="-14.3" font-family="Times,serif" font-size="14.00">59</text>
</g>
<!-- node26&#45;&gt;node29 -->
<g id="edge27" class="edge">
<title>node26-&gt;node29</title>
<path fill="none" stroke="black" d="M1340.43,-73.31C1349.12,-64.74 1359.8,-54.21 1369.4,-44.74"/>
<polygon fill="black" stroke="black" points="1371.74,-47.35 1376.4,-37.84 1366.83,-42.37 1371.74,-47.35"/>
</g>
<!-- node30 -->
<g id="node31" class="node">
<title>node30</title>
<polygon fill="none" stroke="black" points="1440,-0.5 1440,-36.5 1500,-36.5 1500,-0.5 1440,-0.5"/>
<text xml:space="preserve" text-anchor="middle" x="1455" y="-14.3" font-family="Times,serif" font-size="14.00">63</text>
<polyline fill="none" stroke="black" points="1470,-0.5 1470,-36.5"/>
<text xml:space="preserve" text-anchor="middle" x="1485" y="-14.3" font-family="Times,serif" font-size="14.00">64</text>
</g>
<!-- node26&#45;&gt;node30 -->
<g id="edge28" class="edge">
<title>node26-&gt;node30</title>
<path fill="none" stroke="black" d="M1358.96,-73.13C1380.39,-62.78 1407.63,-49.62 1429.77,-38.93"/>
<polygon fill="black" stroke="black" points="1431.02,-42.22 1438.5,-34.71 1427.97,-35.91 1431.02,-42.22"/>
</g>
<!-- node32 -->
<g id="node33" class="node">
<title>node32</title>
<polygon fill="none" stroke="black" points="1620,-73.5 1620,-109.5 1680,-109.5 1680,-73.5 1620,-73.5"/>
<text xml:space="preserve" text-anchor="middle" x="1635" y="-87.3" font-family="Times,serif" font-size="14.00">70</text>
<polyline fill="none" stroke="black" points="1650,-73.5 1650,-109.5"/>
<text xml:space="preserve" text-anchor="middle" x="1665" y="-87.3" font-family="Times,serif" font-size="14.00">73</text>
</g>
<!-- node31&#45;&gt;node32 -->
<g id="edge34" class="edge">
<title>node31-&gt;node32</title>
<path fill="none" stroke="black" d="M1691.69,-146.31C1685.2,-137.94 1677.27,-127.7 1670.07,-118.4"/>
<polygon fill="black" stroke="black" points="1673.01,-116.49 1664.12,-110.73 1667.48,-120.77 1673.01,-116.49"/>
</g>
<!-- node36 -->
<g id="node37" class="node">
<title>node36</title>
<polygon fill="none" stroke="black" points="1768,-73.5 1768,-109.5 1828,-109.5 1828,-73.5 1768,-73.5"/>
<text xml:space="preserve" text-anchor="middle" x="1783" y="-87.3" font-family="Times,serif" font-size="14.00">79</text>
<polyline fill="none" stroke="black" points="1798,-73.5 1798,-109.5"/>
<text xml:space="preserve" text-anchor="middle" x="1813" y="-87.3" font-family="Times,serif" font-size="14.00">84</text>
</g>
<!-- node31&#45;&gt;node36 -->
<g id="edge38" class="edge">
<title>node31-&gt;node36</title>
<path fill="none" stroke="black" d="M1727.51,-146.31C1739.19,-137.4 1753.65,-126.36 1766.43,-116.6"/>
<polygon fill="black" stroke="black" points="1768.34,-119.54 1774.17,-110.69 1764.1,-113.98 1768.34,-119.54"/>
</g>
<!-- node40 -->
<g id="node41" class="node">
<title>node40</title>
<polygon fill="none" stroke="black" points="1996,-73.5 1996,-109.5 2056,-109.5 2056,-73.5 1996,-73.5"/>
<text xml:space="preserve" text-anchor="middle" x="2011" y="-87.3" font-family="Times,serif" font-size="14.00">90</text>
<polyline fill="none" stroke="black" points="2026,-73.5 2026,-109.5"/>
<text xml:space="preserve" text-anchor="middle" x="2041" y="-87.3" font-family="Times,serif" font-size="14.00">98</text>
</g>
<!-- node31&#45;&gt;node40 -->
<g id="edge42" class="edge">
<title>node31-&gt;node40</title>
<path fill="none" stroke="black" d="M1735.49,-156.76C1793.36,-143.96 1919.18,-116.13 1984.61,-101.65"/>
<polygon fill="black" stroke="black" points="1985.23,-105.1 1994.24,-99.53 1983.72,-98.27 1985.23,-105.1"/>
</g>
<!-- node33 -->
<g id="node34" class="node">
<title>node33</title>
<polygon fill="none" stroke="black" points="1518,-0.5 1518,-36.5 1572,-36.5 1572,-0.5 1518,-0.5"/>
<text xml:space="preserve" text-anchor="middle" x="1545" y="-14.3" font-family="Times,serif" font-size="14.00">69</text>
</g>
<!-- node32&#45;&gt;node33 -->
<g id="edge31" class="edge">
<title>node32-&gt;node33</title>
<path fill="none" stroke="black" d="M1624.31,-73.13C1610.97,-64.11 1594.46,-52.94 1579.96,-43.14"/>
<polygon fill="black" stroke="black" points="1582.28,-40.49 1572.04,-37.78 1578.36,-46.28 1582.28,-40.49"/>
</g>
<!-- node34 -->
<g id="node35" class="node">
<title>node34</title>
<polygon fill="none" stroke="black" points="1590,-0.5 1590,-36.5 1644,-36.5 1644,-0.5 1590,-0.5"/>
<text xml:space="preserve" text-anchor="middle" x="1617" y="-14.3" font-family="Times,serif" font-size="14.00">71</text>
</g>
<!-- node32&#45;&gt;node34 -->
<g id="edge32" class="edge">
<title>node32-&gt;node34</title>
<path fill="none" stroke="black" d="M1642.01,-73.31C1638.32,-65.38 1633.85,-55.76 1629.72,-46.86"/>
<polygon fill="black" stroke="black" points="1632.94,-45.49 1625.55,-37.9 1626.59,-48.44 1632.94,-45.49"/>
</g>
<!-- node35 -->
<g id="node36" class="node">
<title>node35</title>
<polygon fill="none" stroke="black" points="1662,-0.5 1662,-36.5 1716,-36.5 1716,-0.5 1662,-0.5"/>
<text xml:space="preserve" text-anchor="middle" x="1689" y="-14.3" font-family="Times,serif" font-size="14.00">75</text>
</g>
<!-- node32&#45;&gt;node35 -->
<g id="edge33" class="edge">
<title>node32-&gt;node35</title>
<path fill="none" stroke="black" d="M1659.44,-73.31C1663.85,-65.29 1669.2,-55.55 1674.13,-46.57"/>
<polygon fill="black" stroke="black" points="1677.17,-48.31 1678.92,-37.86 1671.04,-44.94 1677.17,-48.31"/>
</g>
<!-- node37 -->
<g id="node38" class="node">
<title>node37</title>
<polygon fill="none" stroke="black" points="1734,-0.5 1734,-36.5 1788,-36.5 1788,-0.5 1734,-0.5"/>
<text xml:space="preserve" text-anchor="middle" x="1761" y="-14.3" font-family="Times,serif" font-size="14.00">77</text>
</g>
<!-- node36&#45;&gt;node37 -->
<g id="edge35" class="edge">
<title>node36-&gt;node37</title>
<path fill="none" stroke="black" d="M1789.04,-73.31C1784.86,-65.29 1779.79,-55.55 1775.11,-46.57"/>
<polygon fill="black" stroke="black" points="1778.3,-45.12 1770.57,-37.87 1772.09,-48.36 1778.3,-45.12"/>
</g>
<!-- node38 -->
<g id="node39" class="node">
<title>node38</title>
<polygon fill="none" stroke="black" points="1806,-0.5 1806,-36.5 1866,-36.5 1866,-0.5 1806,-0.5"/>
<text xml:space="preserve" text-anchor="middle" x="1821" y="-14.3" font-family="Times,serif" font-size="14.00">81</text>
<polyline fill="none" stroke="black" points="1836,-0.5 1836,-36.5"/>
<text xml:space="preserve" text-anchor="middle" x="1851" y="-14.3" font-family="Times,serif" font-size="14.00">83</text>
</g>
<!-- node36&#45;&gt;node38 -->
<g id="edge36" class="edge">
<title>node36-&gt;node38</title>
<path fill="none" stroke="black" d="M1807.2,-73.31C1811.49,-65.29 1816.71,-55.55 1821.51,-46.57"/>
<polygon fill="black" stroke="black" points="1824.54,-48.33 1826.17,-37.86 1818.37,-45.03 1824.54,-48.33"/>
</g>
<!-- node39 -->
<g id="node40" class="node">
<title>node39</title>
<polygon fill="none" stroke="black" points="1884,-0.5 1884,-36.5 1944,-36.5 1944,-0.5 1884,-0.5"/>
<text xml:space="preserve" text-anchor="middle" x="1899" y="-14.3" font-family="Times,serif" font-size="14.00">85</text>
<polyline fill="none" stroke="black" points="1914,-0.5 1914,-36.5"/>
<text xml:space="preserve" text-anchor="middle" x="1929" y="-14.3" font-family="Times,serif" font-size="14.00">87</text>
</g>
<!-- node36&#45;&gt;node39 -->
<g id="edge37" class="edge">
<title>node36-&gt;node39</title>
<path fill="none" stroke="black" d="M1826.38,-73.13C1841.26,-64.02 1859.71,-52.73 1875.83,-42.86"/>
<polygon fill="black" stroke="black" points="1877.52,-45.93 1884.22,-37.73 1873.87,-39.96 1877.52,-45.93"/>
</g>
<!-- node41 -->
<g id="node42" class="node">
<title>node41</title>
<polygon fill="none" stroke="black" points="1962,-0.5 1962,-36.5 2016,-36.5 2016,-0.5 1962,-0.5"/>
<text xml:space="preserve" text-anchor="middle" x="1989" y="-14.3" font-family="Times,serif" font-size="14.00">89</text>
</g>
<!-- node40&#45;&gt;node41 -->
<g id="edge39" class="edge">
<title>node40-&gt;node41</title>
<path fill="none" stroke="black" d="M2017.04,-73.31C2012.86,-65.29 2007.79,-55.55 2003.11,-46.57"/>
<polygon fill="black" stroke="black" points="2006.3,-45.12 1998.57,-37.87 2000.09,-48.36 2006.3,-45.12"/>
</g>
<!-- node42 -->
<g id="node43" class="node">
<title>node42</title>
<polygon fill="none" stroke="black" points="2034,-0.5 2034,-36.5 2094,-36.5 2094,-0.5 2034,-0.5"/>
<text xml:space="preserve" text-anchor="middle" x="2049" y="-14.3" font-family="Times,serif" font-size="14.00">94</text>
<polyline fill="none" stroke="black" points="2064,-0.5 2064,-36.5"/>
<text xml:space="preserve" text-anchor="middle" x="2079" y="-14.3" font-family="Times,serif" font-size="14.00">96</text>
</g>
<!-- node40&#45;&gt;node42 -->
<g id="edge40" class="edge">
<title>node40-&gt;node42</title>
<path fill="none" stroke="black" d="M2035.2,-73.31C2039.49,-65.29 2044.71,-55.55 2049.51,-46.57"/>
<polygon fill="black" stroke="black" points="2052.54,-48.33 2054.17,-37.86 2046.37,-45.03 2052.54,-48.33"/>
</g>
<!-- node43 -->
<g id="node44" class="node">
<title>node43</title>
<polygon fill="none" stroke="black" points="2112.5,-0.5 2112.5,-36.5 2179.5,-36.5 2179.5,-0.5 2112.5,-0.5"/>
<text xml:space="preserve" text-anchor="middle" x="2127.5" y="-14.3" font-family="Times,serif" font-size="14.00">99</text>
<polyline fill="none" stroke="black" points="2142.5,-0.5 2142.5,-36.5"/>
<text xml:space="preserve" text-anchor="middle" x="2161" y="-14.3" font-family="Times,serif" font-size="14.00">100</text>
</g>
<!-- node40&#45;&gt;node43 -->
<g id="edge41" class="edge">
<title>node40-&gt;node43</title>
<path fill="none" stroke="black" d="M2055.36,-73.13C2070.9,-63.93 2090.2,-52.52 2106.98,-42.58"/>
<polygon fill="black" stroke="black" points="2108.41,-45.81 2115.23,-37.71 2104.84,-39.79 2108.41,-45.81"/>
</g>
</g>
</svg>