<svg xmlns="http://www.w3.org/2000/svg" xmlns:xlink="http://www.w3.org/1999/xlink" width="3254pt" height="191pt" viewBox="0.00 0.00 3254.00 191.00">
<g id="graph0" class="graph" transform="scale(1 1) rotate(0) translate(4 187)">
<title>BTree</title>
<polygon fill="white" stroke="none" points="-4,4 -4,-187 3249.65,-187 3249.65,4 -4,4"/>
<!-- node0 -->
<g id="node1" class="node">
<title>node0</title>
<polygon fill="none" stroke="black" points="1714.34,-146.5 1714.34,-182.5 1958.31,-182.5 1958.31,-146.5 1714.34,-146.5"/>
<text xml:space="preserve" text-anchor="middle" x="1755" y="-160.3" font-family="Times,serif" font-size="14.00">2021-04-04</text>
<polyline fill="none" stroke="black" points="1795.66,-146.5 1795.66,-182.5"/>
<text xml:space="preserve" text-anchor="middle" x="1836.32" y="-160.3" font-family="Times,serif" font-size="14.00">2022-12-24</text>
<polyline fill="none" stroke="black" points="1876.99,-146.5 1876.99,-182.5"/>
<text xml:space="preserve" text-anchor="middle" x="1917.65" y="-160.3" font-family="Times,serif" font-size="14.00">2024-06-21</text>
</g>
<!-- node1 -->
<g id="node2" class="node">
<title>node1</title>
<polygon fill="none" stroke="black" points="475,-73.5 475,-109.5 637.65,-109.5 637.65,-73.5 475,-73.5"/>
<text xml:space="preserve" text-anchor="middle" x="515.66" y="-87.3" font-family="Times,serif" font-size="14.00">2020-05-15</text>
<polyline fill="none" stroke="black" points="556.32,-73.5 556.32,-109.5"/>
<text xml:space="preserve" text-anchor="middle" x="596.99" y="-87.3" font-family="Times,serif" font-size="14.00">2020-12-12</text>
</g>
<!-- node0&#45;&gt;node1 -->
<g id="edge4" class="edge">
<title>node0-&gt;node1</title>
<path fill="none" stroke="black" d="M1713.88,-156.71C1458.99,-142.57 876.27,-110.25 649.26,-97.66"/>
<polygon fill="black" stroke="black" points="649.76,-94.18 639.58,-97.12 649.37,-101.17 649.76,-94.18"/>
</g>
<!-- node5 -->
<g id="node6" class="node">
<title>node5</title>
<polygon fill="none" stroke="black" points="1383,-73.5 1383,-109.5 1545.65,-109.5 1545.65,-73.5 1383,-73.5"/>
<text xml:space="preserve" text-anchor="middle" x="1423.66" y="-87.3" font-family="Times,serif" font-size="14.00">2022-02-14</text>
<polyline fill="none" stroke="black" points="1464.32,-73.5 1464.32,-109.5"/>
<text xml:space="preserve" text-anchor="middle" x="1504.99" y="-87.3" font-family="Times,serif" font-size="14.00">2022-08-18</text>
</g>
<!-- node0&#45;&gt;node5 -->
<g id="edge8" class="edge">
<title>node0-&gt;node5</title>
<path fill="none" stroke="black" d="M1744.85,-146.04C1687.77,-135.15 1614.52,-121.17 1557.19,-110.22"/>
<polygon fill="black" stroke="black" points="1557.91,-106.8 1547.43,-108.36 1556.59,-113.67 1557.91,-106.8"/>
</g>
<!-- node9 -->
<g id="node10" class="node">
<title>node9</title>
<polygon fill="none" stroke="black" points="1956.34,-73.5 1956.34,-109.5 2200.31,-109.5 2200.31,-73.5 1956.34,-73.5"/>
<text xml:space="preserve" text-anchor="middle" x="1997" y="-87.3" font-family="Times,serif" font-size="14.00">2023-06-06</text>
<polyline fill="none" stroke="black" points="2037.66,-73.5 2037.66,-109.5"/>
<text xml:space="preserve" text-anchor="middle" x="2078.32" y="-87.3" font-family="Times,serif" font-size="14.00">2023-09-09</text>
<polyline fill="none" stroke="black" points="2118.99,-73.5 2118.99,-109.5"/>
<text xml:space="preserve" text-anchor="middle" x="2159.65" y="-87.3" font-family="Times,serif" font-size="14.00">2024-03-03</text>
</g>
<!-- node0&#45;&gt;node9 -->
<g id="edge13" class="edge">
<title>node0-&gt;node9</title>
<path fill="none" stroke="black" d="M1895.83,-146.04C1929.82,-136.07 1972.63,-123.51 2008.24,-113.06"/>
<polygon fill="black" stroke="black" points="2008.98,-116.49 2017.59,-110.32 2007.01,-109.77 2008.98,-116.49"/>
</g>
<!-- node14 -->
<g id="node15" class="node">
<title>node14</title>
<polygon fill="none" stroke="black" points="2680.34,-73.5 2680.34,-109.5 2924.31,-109.5 2924.31,-73.5 2680.34,-73.5"/>
<text xml:space="preserve" text-anchor="middle" x="2721" y="-87.3" font-family="Times,serif" font-size="14.00">2024-11-11</text>
<polyline fill="none" stroke="black" points="2761.66,-73.5 2761.66,-109.5"/>
<text xml:space="preserve" text-anchor="middle" x="2802.32" y="-87.3" font-family="Times,serif" font-size="14.00">2025-04-17</text>
<polyline fill="none" stroke="black" points="2842.99,-73.5 2842.99,-109.5"/>
<text xml:space="preserve" text-anchor="middle" x="2883.65" y="-87.3" font-family="Times,serif" font-size="14.00">2025-08-22</text>
</g>
<!-- node0&#45;&gt;node14 -->
<g id="edge18" class="edge">
<title>node0-&gt;node14</title>
<path fill="none" stroke="black" d="M1958.67,-154.51C2140.51,-141.14 2480.82,-116.13 2668.88,-102.31"/>
<polygon fill="black" stroke="black" points="2668.99,-105.81 2678.7,-101.59 2668.47,-98.83 2668.99,-105.81"/>
</g>
<!-- node2 -->
<g id="node3" class="node">
<title>node2</title>
<polygon fill="none" stroke="black" points="0,-0.5 0,-36.5 162.65,-36.5 162.65,-0.5 0,-0.5"/>
<text xml:space="preserve" text-anchor="middle" x="40.66" y="-14.3" font-family="Times,serif" font-size="14.00">2020-02-02</text>
<polyline fill="none" stroke="black" points="81.32,-0.5 81.32,-36.5"/>
<text xml:space="preserve" text-anchor="middle" x="121.99" y="-14.3" font-family="Times,serif" font-size="14.00">2020-03-30</text>
</g>
<!-- node1&#45;&gt;node2 -->
<g id="edge1" class="edge">
<title>node1-&gt;node2</title>
<path fill="none" stroke="black" d="M474.86,-80.39C399.59,-70.76 284.37,-55.32 174.45,-37.3"/>
<polygon fill="black" stroke="black" points="175.07,-33.86 164.63,-35.69 173.93,-40.77 175.07,-33.86"/>
</g>
<!-- node3 -->
<g id="node4" class="node">
<title>node3</title>
<polygon fill="none" stroke="black" points="181.01,-0.5 181.01,-36.5 587.63,-36.5 587.63,-0.5 181.01,-0.5"/>
<text xml:space="preserve" text-anchor="middle" x="221.68" y="-14.3" font-family="Times,serif" font-size="14.00">2020-07-07</text>
<polyline fill="none" stroke="black" points="262.34,-0.5 262.34,-36.5"/>
<text xml:space="preserve" text-anchor="middle" x="303" y="-14.3" font-family="Times,serif" font-size="14.00">2020-08-28</text>
<polyline fill="none" stroke="black" points="343.66,-0.5 343.66,-36.5"/>
<text xml:space="preserve" text-anchor="middle" x="384.32" y="-14.3" font-family="Times,serif" font-size="14.00">2020-09-09</text>
<polyline fill="none" stroke="black" points="424.99,-0.5 424.99,-36.5"/>
<text xml:space="preserve" text-anchor="middle" x="465.65" y="-14.3" font-family="Times,serif" font-size="14.00">2020-10-10</text>
<polyline fill="none" stroke="black" points="506.31,-0.5 506.31,-36.5"/>
<text xml:space="preserve" text-anchor="middle" x="546.97" y="-14.3" font-family="Times,serif" font-size="14.00">2020-11-11</text>
</g>
<!-- node1&#45;&gt;node3 -->
<g id="edge2" class="edge">
<title>node1-&gt;node3</title>
<path fill="none" stroke="black" d="M514.25,-73.13C490.93,-63.5 461.71,-51.45 436.9,-41.2"/>
<polygon fill="black" stroke="black" points="438.54,-38.09 427.96,-37.51 435.87,-44.56 438.54,-38.09"/>
</g>
<!-- node4 -->
<g id="node5" class="node">
<title>node4</title>
<polygon fill="none" stroke="black" points="605.34,-0.5 605.34,-36.5 849.31,-36.5 849.31,-0.5 605.34,-0.5"/>
<text xml:space="preserve" text-anchor="middle" x="646" y="-14.3" font-family="Times,serif" font-size="14.00">2021-01-01</text>
<polyline fill="none" stroke="black" points="686.66,-0.5 686.66,-36.5"/>
<text xml:space="preserve" text-anchor="middle" x="727.32" y="-14.3" font-family="Times,serif" font-size="14.00">2021-02-12</text>
<polyline fill="none" stroke="black" points="767.99,-0.5 767.99,-36.5"/>
<text xml:space="preserve" text-anchor="middle" x="808.65" y="-14.3" font-family="Times,serif" font-size="14.00">2021-03-03</text>
</g>
<!-- node1&#45;&gt;node4 -->
<g id="edge3" class="edge">
<title>node1-&gt;node4</title>
<path fill="none" stroke="black" d="M598.16,-73.13C621.24,-63.55 650.13,-51.55 674.73,-41.34"/>
<polygon fill="black" stroke="black" points="676.04,-44.58 683.93,-37.52 673.36,-38.12 676.04,-44.58"/>
</g>
<!-- node6 -->
<g id="node7" class="node">
<title>node6</title>
<polygon fill="none" stroke="black" points="867.68,-0.5 867.68,-36.5 1192.97,-36.5 1192.97,-0.5 867.68,-0.5"/>
<text xml:space="preserve" text-anchor="middle" x="908.34" y="-14.3" font-family="Times,serif" font-size="14.00">2021-08-08</text>
<polyline fill="none" stroke="black" points="949,-0.5 949,-36.5"/>
<text xml:space="preserve" text-anchor="middle" x="989.66" y="-14.3" font-family="Times,serif" font-size="14.00">2021-09-10</text>
<polyline fill="none" stroke="black" points="1030.32,-0.5 1030.32,-36.5"/>
<text xml:space="preserve" text-anchor="middle" x="1070.99" y="-14.3" font-family="Times,serif" font-size="14.00">2021-11-23</text>
<polyline fill="none" stroke="black" points="1111.65,-0.5 1111.65,-36.5"/>
<text xml:space="preserve" text-anchor="middle" x="1152.31" y="-14.3" font-family="Times,serif" font-size="14.00">2021-12-05</text>
</g>
<!-- node5&#45;&gt;node6 -->
<g id="edge5" class="edge">
<title>node5-&gt;node6</title>
<path fill="none" stroke="black" d="M1382.69,-77.15C1316.6,-66.33 1222.6,-50.96 1148.31,-38.8"/>
<polygon fill="black" stroke="black" points="1148.96,-35.36 1138.53,-37.2 1147.83,-42.27 1148.96,-35.36"/>
</g>
<!-- node7 -->
<g id="node8" class="node">
<title>node7</title>
<polygon fill="none" stroke="black" points="1211.34,-0.5 1211.34,-36.5 1455.31,-36.5 1455.31,-0.5 1211.34,-0.5"/>
<text xml:space="preserve" text-anchor="middle" x="1252" y="-14.3" font-family="Times,serif" font-size="14.00">2022-05-25</text>
<polyline fill="none" stroke="black" points="1292.66,-0.5 1292.66,-36.5"/>
<text xml:space="preserve" text-anchor="middle" x="1333.32" y="-14.3" font-family="Times,serif" font-size="14.00">2022-06-06</text>
<polyline fill="none" stroke="black" points="1373.99,-0.5 1373.99,-36.5"/>
<text xml:space="preserve" text-anchor="middle" x="1414.65" y="-14.3" font-family="Times,serif" font-size="14.00">2022-07-07</text>
</g>
<!-- node5&#45;&gt;node7 -->
<g id="edge6" class="edge">
<title>node5-&gt;node7</title>
<path fill="none" stroke="black" d="M1432.28,-73.13C1415.15,-63.85 1393.85,-52.3 1375.4,-42.31"/>
<polygon fill="black" stroke="black" points="1377.28,-39.34 1366.82,-37.66 1373.95,-45.5 1377.28,-39.34"/>
</g>
<!-- node8 -->
<g id="node9" class="node">
<title>node8</title>
<polygon fill="none" stroke="black" points="1473.34,-0.5 1473.34,-36.5 1717.31,-36.5 1717.31,-0.5 1473.34,-0.5"/>
<text xml:space="preserve" text-anchor="middle" x="1514" y="-14.3" font-family="Times,serif" font-size="14.00">2022-09-01</text>
<polyline fill="none" stroke="black" points="1554.66,-0.5 1554.66,-36.5"/>
<text xml:space="preserve" text-anchor="middle" x="1595.32" y="-14.3" font-family="Times,serif" font-size="14.00">2022-10-31</text>
<polyline fill="none" stroke="black" points="1635.99,-0.5 1635.99,-36.5"/>
<text xml:space="preserve" text-anchor="middle" x="1676.65" y="-14.3" font-family="Times,serif" font-size="14.00">2022-11-03</text>
</g>
<!-- node5&#45;&gt;node8 -->
<g id="edge7" class="edge">
<title>node5-&gt;node8</title>
<path fill="none" stroke="black" d="M1496.37,-73.13C1513.5,-63.85 1534.8,-52.3 1553.25,-42.31"/>
<polygon fill="black" stroke="black" points="1554.7,-45.5 1561.82,-37.66 1551.36,-39.34 1554.7,-45.5"/>
</g>
<!-- node10 -->
<g id="node11" class="node">
<title>node10</title>
<polygon fill="none" stroke="black" points="1735.34,-0.5 1735.34,-36.5 1979.31,-36.5 1979.31,-0.5 1735.34,-0.5"/>
<text xml:space="preserve" text-anchor="middle" x="1776" y="-14.3" font-family="Times,serif" font-size="14.00">2023-02-02</text>
<polyline fill="none" stroke="black" points="1816.66,-0.5 1816.66,-36.5"/>
<text xml:space="preserve" text-anchor="middle" x="1857.32" y="-14.3" font-family="Times,serif" font-size="14.00">2023-03-17</text>
<polyline fill="none" stroke="black" points="1897.99,-0.5 1897.99,-36.5"/>
<text xml:space="preserve" text-anchor="middle" x="1938.65" y="-14.3" font-family="Times,serif" font-size="14.00">2023-04-25</text>
</g>
<!-- node9&#45;&gt;node10 -->
<g id="edge9" class="edge">
<title>node9-&gt;node10</title>
<path fill="none" stroke="black" d="M2023.98,-73.04C1993.21,-63.15 1954.52,-50.73 1922.17,-40.33"/>
<polygon fill="black" stroke="black" points="1923.49,-37.08 1912.9,-37.35 1921.35,-43.75 1923.49,-37.08"/>
</g>
<!-- node11 -->
<g id="node12" class="node">
<title>node11</title>
<polygon fill="none" stroke="black" points="1997,-0.5 1997,-36.5 2159.65,-36.5 2159.65,-0.5 1997,-0.5"/>
<text xml:space="preserve" text-anchor="middle" x="2037.66" y="-14.3" font-family="Times,serif" font-size="14.00">2023-07-19</text>
<polyline fill="none" stroke="black" points="2078.32,-0.5 2078.32,-36.5"/>
<text xml:space="preserve" text-anchor="middle" x="2118.99" y="-14.3" font-family="Times,serif" font-size="14.00">2023-08-08</text>
</g>
<!-- node9&#45;&gt;node11 -->
<g id="edge10" class="edge">
<title>node9-&gt;node11</title>
<path fill="none" stroke="black" d="M2078.32,-73.31C2078.32,-65.73 2078.32,-56.6 2078.32,-48.04"/>
<polygon fill="black" stroke="black" points="2081.82,-48.04 2078.32,-38.04 2074.82,-48.04 2081.82,-48.04"/>
</g>
<!-- node12 -->
<g id="node13" class="node">
<title>node12</title>
<polygon fill="none" stroke="black" points="2178,-0.5 2178,-36.5 2340.65,-36.5 2340.65,-0.5 2178,-0.5"/>
<text xml:space="preserve" text-anchor="middle" x="2218.66" y="-14.3" font-family="Times,serif" font-size="14.00">2023-11-11</text>
<polyline fill="none" stroke="black" points="2259.32,-0.5 2259.32,-36.5"/>
<text xml:space="preserve" text-anchor="middle" x="2299.99" y="-14.3" font-family="Times,serif" font-size="14.00">2024-01-27</text>
</g>
<!-- node9&#45;&gt;node12 -->
<g id="edge11" class="edge">
<title>node9-&gt;node12</title>
<path fill="none" stroke="black" d="M2122.6,-73.13C2147.25,-63.46 2178.16,-51.34 2204.35,-41.06"/>
<polygon fill="black" stroke="black" points="2205.44,-44.4 2213.47,-37.49 2202.88,-37.88 2205.44,-44.4"/>
</g>
<!-- node13 -->
<g id="node14" class="node">
<title>node13</title>
<polygon fill="none" stroke="black" points="2359,-0.5 2359,-36.5 2521.65,-36.5 2521.65,-0.5 2359,-0.5"/>
<text xml:space="preserve" text-anchor="middle" x="2399.66" y="-14.3" font-family="Times,serif" font-size="14.00">2024-04-18</text>
<polyline fill="none" stroke="black" points="2440.32,-0.5 2440.32,-36.5"/>
<text xml:space="preserve" text-anchor="middle" x="2480.99" y="-14.3" font-family="Times,serif" font-size="14.00">2024-05-20</text>
</g>
<!-- node9&#45;&gt;node13 -->
<g id="edge12" class="edge">
<title>node9-&gt;node13</title>
<path fill="none" stroke="black" d="M2167.34,-73.04C2222.08,-62.3 2292.11,-48.57 2347.53,-37.7"/>
<polygon fill="black" stroke="black" points="2348.15,-41.15 2357.29,-35.79 2346.8,-34.28 2348.15,-41.15"/>
</g>
<!-- node15 -->
<g id="node16" class="node">
<title>node15</title>
<polygon fill="none" stroke="black" points="2540,-0.5 2540,-36.5 2702.65,-36.5 2702.65,-0.5 2540,-0.5"/>
<text xml:space="preserve" text-anchor="middle" x="2580.66" y="-14.3" font-family="Times,serif" font-size="14.00">2024-07-13</text>
<polyline fill="none" stroke="black" points="2621.32,-0.5 2621.32,-36.5"/>
<text xml:space="preserve" text-anchor="middle" x="2661.99" y="-14.3" font-family="Times,serif" font-size="14.00">2024-09-29</text>
</g>
<!-- node14&#45;&gt;node15 -->
<g id="edge14" class="edge">
<title>node14-&gt;node15</title>
<path fill="none" stroke="black" d="M2758.05,-73.13C2733.39,-63.46 2702.49,-51.34 2676.3,-41.06"/>
<polygon fill="black" stroke="black" points="2677.77,-37.88 2667.18,-37.49 2675.21,-44.4 2677.77,-37.88"/>
</g>
<!-- node16 -->
<g id="node17" class="node">
<title>node16</title>
<polygon fill="none" stroke="black" points="2721,-0.5 2721,-36.5 2883.65,-36.5 2883.65,-0.5 2721,-0.5"/>
<text xml:space="preserve" text-anchor="middle" x="2761.66" y="-14.3" font-family="Times,serif" font-size="14.00">2025-02-28</text>
<polyline fill="none" stroke="black" points="2802.32,-0.5 2802.32,-36.5"/>
<text xml:space="preserve" text-anchor="middle" x="2842.99" y="-14.3" font-family="Times,serif" font-size="14.00">2025-03-03</text>
</g>
<!-- node14&#45;&gt;node16 -->
<g id="edge15" class="edge">
<title>node14-&gt;node16</title>
<path fill="none" stroke="black" d="M2802.32,-73.31C2802.32,-65.73 2802.32,-56.6 2802.32,-48.04"/>
<polygon fill="black" stroke="black" points="2805.82,-48.04 2802.32,-38.04 2798.82,-48.04 2805.82,-48.04"/>
</g>
<!-- node17 -->
<g id="node18" class="node">
<title>node17</title>
<polygon fill="none" stroke="black" points="2902,-0.5 2902,-36.5 3064.65,-36.5 3064.65,-0.5 2902,-0.5"/>
<text xml:space="preserve" text-anchor="middle" x="2942.66" y="-14.3" font-family="Times,serif" font-size="14.00">2025-05-05</text>
<polyline fill="none" stroke="black" points="2983.32,-0.5 2983.32,-36.5"/>
<text xml:space="preserve" text-anchor="middle" x="3023.99" y="-14.3" font-family="Times,serif" font-size="14.00">2025-07-07</text>
</g>
<!-- node14&#45;&gt;node17 -->
<g id="edge16" class="edge">
<title>node14-&gt;node17</title>
<path fill="none" stroke="black" d="M2846.6,-73.13C2871.25,-63.46 2902.16,-51.34 2928.35,-41.06"/>
<polygon fill="black" stroke="black" points="2929.44,-44.4 2937.47,-37.49 2926.88,-37.88 2929.44,-44.4"/>
</g>
<!-- node18 -->
<g id="node19" class="node">
<title>node18</title>
<polygon fill="none" stroke="black" points="3083,-0.5 3083,-36.5 3245.65,-36.5 3245.65,-0.5 3083,-0.5"/>
<text xml:space="preserve" text-anchor="middle" x="3123.66" y="-14.3" font-family="Times,serif" font-size="14.00">2025-10-10</text>
<polyline fill="none" stroke="black" points="3164.32,-0.5 3164.32,-36.5"/>
<text xml:space="preserve" text-anchor="middle" x="3204.99" y="-14.3" font-family="Times,serif" font-size="14.00">2025-12-01</text>
</g>
<!-- node14&#45;&gt;node18 -->
<g id="edge17" class="edge">
<title>node14-&gt;node18</title>
<path fill="none" stroke="black" d="M2891.34,-73.04C2946.08,-62.3 3016.11,-48.57 3071.53,-37.7"/>
<polygon fill="black" stroke="black" points="3072.15,-41.15 3081.29,-35.79 3070.8,-34.28 3072.15,-41.15"/>
</g>
</g>
</svg>