<svg xmlns="http://www.w3.org/2000/svg" xmlns:xlink="http://www.w3.org/1999/xlink" width="1968pt" height="118pt" viewBox="0.00 0.00 1968.00 118.00">
<g id="graph0" class="graph" transform="scale(1 1) rotate(0) translate(4 114)">
<title>BTree</title>
<polygon fill="white" stroke="none" points="-4,4 -4,-114 1963.5,-114 1963.5,4 -4,4"/>
<!-- node0 -->
<g id="node1" class="node">
<title>node0</title>
<polygon fill="none" stroke="black" points="782,-73.5 782,-109.5 1082,-109.5 1082,-73.5 782,-73.5"/>
<text xml:space="preserve" text-anchor="middle" x="797" y="-87.3" font-family="Times,serif" font-size="14.00">11</text>
<polyline fill="none" stroke="black" points="812,-73.5 812,-109.5"/>
<text xml:space="preserve" text-anchor="middle" x="827" y="-87.3" font-family="Times,serif" font-size="14.00">18</text>
<polyline fill="none" stroke="black" points="842,-73.5 842,-109.5"/>
<text xml:space="preserve" text-anchor="middle" x="857" y="-87.3" font-family="Times,serif" font-size="14.00">27</text>
<polyline fill="none" stroke="black" points="872,-73.5 872,-109.5"/>
<text xml:space="preserve" text-anchor="middle" x="887" y="-87.3" font-family="Times,serif" font-size="14.00">35</text>
<polyline fill="none" stroke="black" points="902,-73.5 902,-109.5"/>
<text xml:space="preserve" text-anchor="middle" x="917" y="-87.3" font-family="Times,serif" font-size="14.00">41</text>
<polyline fill="none" stroke="black" points="932,-73.5 932,-109.5"/>
<text xml:space="preserve" text-anchor="middle" x="947" y="-87.3" font-family="Times,serif" font-size="14.00">52</text>
<polyline fill="none" stroke="black" points="962,-73.5 962,-109.5"/>
<text xml:space="preserve" text-anchor="middle" x="977" y="-87.3" font-family="Times,serif" font-size="14.00">59</text>
<polyline fill="none" stroke="black" points="992,-73.5 992,-109.5"/>
<text xml:space="preserve" text-anchor="middle" x="1007" y="-87.3" font-family="Times,serif" font-size="14.00">70</text>
<polyline fill="none" stroke="black" points="1022,-73.5 1022,-109.5"/>
<text xml:space="preserve" text-anchor="middle" x="1037" y="-87.3" font-family="Times,serif" font-size="14.00">79</text>
<polyline fill="none" stroke="black" points="1052,-73.5 1052,-109.5"/>
<text xml:space="preserve" text-anchor="middle" x="1067" y="-87.3" font-family="Times,serif" font-size="14.00">90</text>
</g>
<!-- node1 -->
<g id="node2" class="node">
<title>node1</title>
<polygon fill="none" stroke="black" points="0,-0.5 0,-36.5 122,-36.5 122,-0.5 0,-0.5"/>
<text xml:space="preserve" text-anchor="middle" x="11.5" y="-14.3" font-family="Times,serif" font-size="14.00">1</text>
<polyline fill="none" stroke="black" points="23,-0.5 23,-36.5"/>
<text xml:space="preserve" text-anchor="middle" x="34.5" y="-14.3" font-family="Times,serif" font-size="14.00">3</text>
<polyline fill="none" stroke="black" points="46,-0.5 46,-36.5"/>
<text xml:space="preserve" text-anchor="middle" x="57.5" y="-14.3" font-family="Times,serif" font-size="14.00">4</text>
<polyline fill="none" stroke="black" points="69,-0.5 69,-36.5"/>
<text xml:space="preserve" text-anchor="middle" x="80.5" y="-14.3" font-family="Times,serif" font-size="14.00">8</text>
<polyline fill="none" stroke="black" points="92,-0.5 92,-36.5"/>
<text xml:space="preserve" text-anchor="middle" x="107" y="-14.3" font-family="Times,serif" font-size="14.00">10</text>
</g>
<!-- node0&#45;&gt;node1 -->
<g id="edge1" class="edge">
<title>node0-&gt;node1</title>
<path fill="none" stroke="black" d="M781.64,-88.44C622.61,-84.43 364.42,-72.73 133.65,-37.25"/>
<polygon fill="black" stroke="black" points="134.25,-33.8 123.83,-35.72 133.17,-40.72 134.25,-33.8"/>
</g>
<!-- node2 -->
<g id="node3" class="node">
<title>node2</title>
<polygon fill="none" stroke="black" points="140,-0.5 140,-36.5 290,-36.5 290,-0.5 140,-0.5"/>
<text xml:space="preserve" text-anchor="middle" x="155" y="-14.3" font-family="Times,serif" font-size="14.00">13</text>
<polyline fill="none" stroke="black" points="170,-0.5 170,-36.5"/>
<text xml:space="preserve" text-anchor="middle" x="185" y="-14.3" font-family="Times,serif" font-size="14.00">14</text>
<polyline fill="none" stroke="black" points="200,-0.5 200,-36.5"/>
<text xml:space="preserve" text-anchor="middle" x="215" y="-14.3" font-family="Times,serif" font-size="14.00">15</text>
<polyline fill="none" stroke="black" points="230,-0.5 230,-36.5"/>
<text xml:space="preserve" text-anchor="middle" x="245" y="-14.3" font-family="Times,serif" font-size="14.00">16</text>
<polyline fill="none" stroke="black" points="260,-0.5 260,-36.5"/>
<text xml:space="preserve" text-anchor="middle" x="275" y="-14.3" font-family="Times,serif" font-size="14.00">17</text>
</g>
<!-- node0&#45;&gt;node2 -->
<g id="edge2" class="edge">
<title>node0-&gt;node2</title>
<path fill="none" stroke="black" d="M781.78,-82.94C655.91,-75.4 471.38,-61.57 301.64,-37.29"/>
<polygon fill="black" stroke="black" points="302.38,-33.86 291.98,-35.89 301.37,-40.79 302.38,-33.86"/>
</g>
<!-- node3 -->
<g id="node4" class="node">
<title>node3</title>
<polygon fill="none" stroke="black" points="308,-0.5 308,-36.5 458,-36.5 458,-0.5 308,-0.5"/>
<text xml:space="preserve" text-anchor="middle" x="323" y="-14.3" font-family="Times,serif" font-size="14.00">19</text>
<polyline fill="none" stroke="black" points="338,-0.5 338,-36.5"/>
<text xml:space="preserve" text-anchor="middle" x="353" y="-14.3" font-family="Times,serif" font-size="14.00">20</text>
<polyline fill="none" stroke="black" points="368,-0.5 368,-36.5"/>
<text xml:space="preserve" text-anchor="middle" x="383" y="-14.3" font-family="Times,serif" font-size="14.00">21</text>
<polyline fill="none" stroke="black" points="398,-0.5 398,-36.5"/>
<text xml:space="preserve" text-anchor="middle" x="413" y="-14.3" font-family="Times,serif" font-size="14.00">24</text>
<polyline fill="none" stroke="black" points="428,-0.5 428,-36.5"/>
<text xml:space="preserve" text-anchor="middle" x="443" y="-14.3" font-family="Times,serif" font-size="14.00">25</text>
</g>
<!-- node0&#45;&gt;node3 -->
<g id="edge3" class="edge">
<title>node0-&gt;node3</title>
<path fill="none" stroke="black" d="M781.53,-76.69C693.29,-67.75 579.44,-54.77 469.78,-37.37"/>
<polygon fill="black" stroke="black" points="470.42,-33.93 459.99,-35.81 469.31,-40.84 470.42,-33.93"/>
</g>
<!-- node4 -->
<g id="node5" class="node">
<title>node4</title>
<polygon fill="none" stroke="black" points="476,-0.5 476,-36.5 626,-36.5 626,-0.5 476,-0.5"/>
<text xml:space="preserve" text-anchor="middle" x="491" y="-14.3" font-family="Times,serif" font-size="14.00">29</text>
<polyline fill="none" stroke="black" points="506,-0.5 506,-36.5"/>
<text xml:space="preserve" text-anchor="middle" x="521" y="-14.3" font-family="Times,serif" font-size="14.00">30</text>
<polyline fill="none" stroke="black" points="536,-0.5 536,-36.5"/>
<text xml:space="preserve" text-anchor="middle" x="551" y="-14.3" font-family="Times,serif" font-size="14.00">31</text>
<polyline fill="none" stroke="black" points="566,-0.5 566,-36.5"/>
<text xml:space="preserve" text-anchor="middle" x="581" y="-14.3" font-family="Times,serif" font-size="14.00">32</text>
<polyline fill="none" stroke="black" points="596,-0.5 596,-36.5"/>
<text xml:space="preserve" text-anchor="middle" x="611" y="-14.3" font-family="Times,serif" font-size="14.00">33</text>
</g>
<!-- node0&#45;&gt;node4 -->
<g id="edge4" class="edge">
<title>node0-&gt;node4</title>
<path fill="none" stroke="black" d="M831.18,-73.04C776.56,-63.41 707.61,-51 637.37,-37.43"/>
<polygon fill="black" stroke="black" points="638.05,-34 627.57,-35.54 636.72,-40.87 638.05,-34"/>
</g>
<!-- node5 -->
<g id="node6" class="node">
<title>node5</title>
<polygon fill="none" stroke="black" points="644,-0.5 644,-36.5 794,-36.5 794,-0.5 644,-0.5"/>
<text xml:space="preserve" text-anchor="middle" x="659" y="-14.3" font-family="Times,serif" font-size="14.00">36</text>
<polyline fill="none" stroke="black" points="674,-0.5 674,-36.5"/>
<text xml:space="preserve" text-anchor="middle" x="689" y="-14.3" font-family="Times,serif" font-size="14.00">37</text>
<polyline fill="none" stroke="black" points="704,-0.5 704,-36.5"/>
<text xml:space="preserve" text-anchor="middle" x="719" y="-14.3" font-family="Times,serif" font-size="14.00">38</text>
<polyline fill="none" stroke="black" points="734,-0.5 734,-36.5"/>
<text xml:space="preserve" text-anchor="middle" x="749" y="-14.3" font-family="Times,serif" font-size="14.00">39</text>
<polyline fill="none" stroke="black" points="764,-0.5 764,-36.5"/>
<text xml:space="preserve" text-anchor="middle" x="779" y="-14.3" font-family="Times,serif" font-size="14.00">40</text>
</g>
<!-- node0&#45;&gt;node5 -->
<g id="edge5" class="edge">
<title>node0-&gt;node5</title>
<path fill="none" stroke="black" d="M879.62,-73.04C850.09,-63.2 813,-50.83 781.9,-40.47"/>
<polygon fill="black" stroke="black" points="783.21,-37.21 772.61,-37.37 780.99,-43.85 783.21,-37.21"/>
</g>
<!-- node6 -->
<g id="node7" class="node">
<title>node6</title>
<polygon fill="none" stroke="black" points="812,-0.5 812,-36.5 1052,-36.5 1052,-0.5 812,-0.5"/>
<text xml:space="preserve" text-anchor="middle" x="827" y="-14.3" font-family="Times,serif" font-size="14.00">43</text>
<polyline fill="none" stroke="black" points="842,-0.5 842,-36.5"/>
<text xml:space="preserve" text-anchor="middle" x="857" y="-14.3" font-family="Times,serif" font-size="14.00">44</text>
<polyline fill="none" stroke="black" points="872,-0.5 872,-36.5"/>
<text xml:space="preserve" text-anchor="middle" x="887" y="-14.3" font-family="Times,serif" font-size="14.00">45</text>
<polyline fill="none" stroke="black" points="902,-0.5 902,-36.5"/>
<text xml:space="preserve" text-anchor="middle" x="917" y="-14.3" font-family="Times,serif" font-size="14.00">46</text>
<polyline fill="none" stroke="black" points="932,-0.5 932,-36.5"/>
<text xml:space="preserve" text-anchor="middle" x="947" y="-14.3" font-family="Times,serif" font-size="14.00">48</text>
<polyline fill="none" stroke="black" points="962,-0.5 962,-36.5"/>
<text xml:space="preserve" text-anchor="middle" x="977" y="-14.3" font-family="Times,serif" font-size="14.00">49</text>
<polyline fill="none" stroke="black" points="992,-0.5 992,-36.5"/>
<text xml:space="preserve" text-anchor="middle" x="1007" y="-14.3" font-family="Times,serif" font-size="14.00">50</text>
<polyline fill="none" stroke="black" points="1022,-0.5 1022,-36.5"/>
<text xml:space="preserve" text-anchor="middle" x="1037" y="-14.3" font-family="Times,serif" font-size="14.00">51</text>
</g>
<!-- node0&#45;&gt;node6 -->
<g id="edge6" class="edge">
<title>node0-&gt;node6</title>
<path fill="none" stroke="black" d="M932,-73.31C932,-65.73 932,-56.6 932,-48.04"/>
<polygon fill="black" stroke="black" points="935.5,-48.04 932,-38.04 928.5,-48.04 935.5,-48.04"/>
</g>
<!-- node7 -->
<g id="node8" class="node">
<title>node7</title>
<polygon fill="none" stroke="black" points="1070,-0.5 1070,-36.5 1220,-36.5 1220,-0.5 1070,-0.5"/>
<text xml:space="preserve" text-anchor="middle" x="1085" y="-14.3" font-family="Times,serif" font-size="14.00">53</text>
<polyline fill="none" stroke="black" points="1100,-0.5 1100,-36.5"/>
<text xml:space="preserve" text-anchor="middle" x="1115" y="-14.3" font-family="Times,serif" font-size="14.00">55</text>
<polyline fill="none" stroke="black" points="1130,-0.5 1130,-36.5"/>
<text xml:space="preserve" text-anchor="middle" x="1145" y="-14.3" font-family="Times,serif" font-size="14.00">56</text>
<polyline fill="none" stroke="black" points="1160,-0.5 1160,-36.5"/>
<text xml:space="preserve" text-anchor="middle" x="1175" y="-14.3" font-family="Times,serif" font-size="14.00">57</text>
<polyline fill="none" stroke="black" points="1190,-0.5 1190,-36.5"/>
<text xml:space="preserve" text-anchor="middle" x="1205" y="-14.3" font-family="Times,serif" font-size="14.00">58</text>
</g>
<!-- node0&#45;&gt;node7 -->
<g id="edge7" class="edge">
<title>node0-&gt;node7</title>
<path fill="none" stroke="black" d="M984.38,-73.04C1013.91,-63.2 1051,-50.83 1082.1,-40.47"/>
<polygon fill="black" stroke="black" points="1083.01,-43.85 1091.39,-37.37 1080.79,-37.21 1083.01,-43.85"/>
</g>
<!-- node8 -->
<g id="node9" class="node">
<title>node8</title>
<polygon fill="none" stroke="black" points="1238,-0.5 1238,-36.5 1388,-36.5 1388,-0.5 1238,-0.5"/>
<text xml:space="preserve" text-anchor="middle" x="1253" y="-14.3" font-family="Times,serif" font-size="14.00">60</text>
<polyline fill="none" stroke="black" points="1268,-0.5 1268,-36.5"/>
<text xml:space="preserve" text-anchor="middle" x="1283" y="-14.3" font-family="Times,serif" font-size="14.00">63</text>
<polyline fill="none" stroke="black" points="1298,-0.5 1298,-36.5"/>
<text xml:space="preserve" text-anchor="middle" x="1313" y="-14.3" font-family="Times,serif" font-size="14.00">64</text>
<polyline fill="none" stroke="black" points="1328,-0.5 1328,-36.5"/>
<text xml:space="preserve" text-anchor="middle" x="1343" y="-14.3" font-family="Times,serif" font-size="14.00">67</text>
<polyline fill="none" stroke="black" points="1358,-0.5 1358,-36.5"/>
<text xml:space="preserve" text-anchor="middle" x="1373" y="-14.3" font-family="Times,serif" font-size="14.00">69</text>
</g>
<!-- node0&#45;&gt;node8 -->
<g id="edge8" class="edge">
<title>node0-&gt;node8</title>
<path fill="none" stroke="black" d="M1032.82,-73.04C1087.44,-63.41 1156.39,-51 1226.63,-37.43"/>
<polygon fill="black" stroke="black" points="1227.28,-40.87 1236.43,-35.54 1225.95,-34 1227.28,-40.87"/>
</g>
<!-- node9 -->
<g id="node10" class="node">
<title>node9</title>
<polygon fill="none" stroke="black" points="1406,-0.5 1406,-36.5 1556,-36.5 1556,-0.5 1406,-0.5"/>
<text xml:space="preserve" text-anchor="middle" x="1421" y="-14.3" font-family="Times,serif" font-size="14.00">71</text>
<polyline fill="none" stroke="black" points="1436,-0.5 1436,-36.5"/>
<text xml:space="preserve" text-anchor="middle" x="1451" y="-14.3" font-family="Times,serif" font-size="14.00">73</text>
<polyline fill="none" stroke="black" points="1466,-0.5 1466,-36.5"/>
<text xml:space="preserve" text-anchor="middle" x="1481" y="-14.3" font-family="Times,serif" font-size="14.00">75</text>
<polyline fill="none" stroke="black" points="1496,-0.5 1496,-36.5"/>
<text xml:space="preserve" text-anchor="middle" x="1511" y="-14.3" font-family="Times,serif" font-size="14.00">76</text>
<polyline fill="none" stroke="black" points="1526,-0.5 1526,-36.5"/>
<text xml:space="preserve" text-anchor="middle" x="1541" y="-14.3" font-family="Times,serif" font-size="14.00">77</text>
</g>
<!-- node0&#45;&gt;node9 -->
<g id="edge9" class="edge">
<title>node0-&gt;node9</title>
<path fill="none" stroke="black" d="M1082.47,-76.69C1170.71,-67.75 1284.56,-54.77 1394.22,-37.37"/>
<polygon fill="black" stroke="black" points="1394.69,-40.84 1404.01,-35.81 1393.58,-33.93 1394.69,-40.84"/>
</g>
<!-- node10 -->
<g id="node11" class="node">
<title>node10</title>
<polygon fill="none" stroke="black" points="1574,-0.5 1574,-36.5 1784,-36.5 1784,-0.5 1574,-0.5"/>
<text xml:space="preserve" text-anchor="middle" x="1589" y="-14.3" font-family="Times,serif" font-size="14.00">81</text>
<polyline fill="none" stroke="black" points="1604,-0.5 1604,-36.5"/>
<text xml:space="preserve" text-anchor="middle" x="1619" y="-14.3" font-family="Times,serif" font-size="14.00">83</text>
<polyline fill="none" stroke="black" points="1634,-0.5 1634,-36.5"/>
<text xml:space="preserve" text-anchor="middle" x="1649" y="-14.3" font-family="Times,serif" font-size="14.00">84</text>
<polyline fill="none" stroke="black" points="1664,-0.5 1664,-36.5"/>
<text xml:space="preserve" text-anchor="middle" x="1679" y="-14.3" font-family="Times,serif" font-size="14.00">85</text>
<polyline fill="none" stroke="black" points="1694,-0.5 1694,-36.5"/>
<text xml:space="preserve" text-anchor="middle" x="1709" y="-14.3" font-family="Times,serif" font-size="14.00">87</text>
<polyline fill="none" stroke="black" points="1724,-0.5 1724,-36.5"/>
<text xml:space="preserve" text-anchor="middle" x="1739" y="-14.3" font-family="Times,serif" font-size="14.00">88</text>
<polyline fill="none" stroke="black" points="1754,-0.5 1754,-36.5"/>
<text xml:space="preserve" text-anchor="middle" x="1769" y="-14.3" font-family="Times,serif" font-size="14.00">89</text>
</g>
<!-- node0&#45;&gt;node10 -->
<g id="edge10" class="edge">
<title>node0-&gt;node10</title>
<path fill="none" stroke="black" d="M1082.25,-80.69C1207.93,-71.81 1392.19,-57.22 1562.55,-37.25"/>
<polygon fill="black" stroke="black" points="1562.73,-40.75 1572.25,-36.1 1561.91,-33.8 1562.73,-40.75"/>
</g>
<!-- node11 -->
<g id="node12" class="node">
<title>node11</title>
<polygon fill="none" stroke="black" points="1802.5,-0.5 1802.5,-36.5 1959.5,-36.5 1959.5,-0.5 1802.5,-0.5"/>
<text xml:space="preserve" text-anchor="middle" x="1817.5" y="-14.3" font-family="Times,serif" font-size="14.00">94</text>
<polyline fill="none" stroke="black" points="1832.5,-0.5 1832.5,-36.5"/>
<text xml:space="preserve" text-anchor="middle" x="1847.5" y="-14.3" font-family="Times,serif" font-size="14.00">96</text>
<polyline fill="none" stroke="black" points="1862.5,-0.5 1862.5,-36.5"/>
<text xml:space="preserve" text-anchor="middle" x="1877.5" y="-14.3" font-family="Times,serif" font-size="14.00">98</text>
<polyline fill="none" stroke="black" points="1892.5,-0.5 1892.5,-36.5"/>
<text xml:space="preserve" text-anchor="middle" x="1907.5" y="-14.3" font-family="Times,serif" font-size="14.00">99</text>
<polyline fill="none" stroke="black" points="1922.5,-0.5 1922.5,-36.5"/>
<text xml:space="preserve" text-anchor="middle" x="1941" y="-14.3" font-family="Times,serif" font-size="14.00">100</text>
</g>
<!-- node0&#45;&gt;node11 -->
<g id="edge11" class="edge">
<title>node0-&gt;node11</title>
<path fill="none" stroke="black" d="M1082.29,-87.27C1252.05,-82.23 1536.67,-69.57 1791.08,-37.13"/>
<polygon fill="black" stroke="black" points="1791.43,-40.62 1800.9,-35.87 1790.54,-33.67 1791.43,-40.62"/>
</g>
</g>
</svg>